<mxfile host="Electron" modified="2023-11-28T16:55:57.097Z" agent="Mozilla/5.0 (Windows NT 10.0; Win64; x64) AppleWebKit/537.36 (KHTML, like Gecko) draw.io/22.1.2 Chrome/114.0.5735.289 Electron/25.9.4 Safari/537.36" etag="6v6sa7G91FN5g3vv0LVD" version="22.1.2" type="device" pages="3">
  <diagram name="Página-1" id="2XE57c8Qy7yZGo_10Zy7">
    <mxGraphModel dx="864" dy="526" grid="1" gridSize="10" guides="1" tooltips="1" connect="1" arrows="1" fold="1" page="1" pageScale="1" pageWidth="827" pageHeight="1169" math="0" shadow="0">
      <root>
        <mxCell id="0" />
        <mxCell id="1" parent="0" />
        <mxCell id="8NgjJZ-8jwCqkYJ4vClg-1" value="Usuario" style="swimlane;fontStyle=0;childLayout=stackLayout;horizontal=1;startSize=30;horizontalStack=0;resizeParent=1;resizeParentMax=0;resizeLast=0;collapsible=1;marginBottom=0;whiteSpace=wrap;html=1;fillColor=#33FF33;" parent="1" vertex="1">
          <mxGeometry x="200" y="120" width="140" height="120" as="geometry" />
        </mxCell>
        <mxCell id="8NgjJZ-8jwCqkYJ4vClg-2" value="- Visualizar publicaciones" style="text;strokeColor=none;fillColor=none;align=left;verticalAlign=middle;spacingLeft=4;spacingRight=4;overflow=hidden;points=[[0,0.5],[1,0.5]];portConstraint=eastwest;rotatable=0;whiteSpace=wrap;html=1;" parent="8NgjJZ-8jwCqkYJ4vClg-1" vertex="1">
          <mxGeometry y="30" width="140" height="30" as="geometry" />
        </mxCell>
        <mxCell id="8NgjJZ-8jwCqkYJ4vClg-3" value="- Comentar" style="text;strokeColor=none;fillColor=none;align=left;verticalAlign=middle;spacingLeft=4;spacingRight=4;overflow=hidden;points=[[0,0.5],[1,0.5]];portConstraint=eastwest;rotatable=0;whiteSpace=wrap;html=1;" parent="8NgjJZ-8jwCqkYJ4vClg-1" vertex="1">
          <mxGeometry y="60" width="140" height="30" as="geometry" />
        </mxCell>
        <mxCell id="8NgjJZ-8jwCqkYJ4vClg-4" value="-Ver publicidad" style="text;strokeColor=none;fillColor=none;align=left;verticalAlign=middle;spacingLeft=4;spacingRight=4;overflow=hidden;points=[[0,0.5],[1,0.5]];portConstraint=eastwest;rotatable=0;whiteSpace=wrap;html=1;" parent="8NgjJZ-8jwCqkYJ4vClg-1" vertex="1">
          <mxGeometry y="90" width="140" height="30" as="geometry" />
        </mxCell>
        <mxCell id="8NgjJZ-8jwCqkYJ4vClg-9" value="Sistema de Blog" style="swimlane;fontStyle=0;childLayout=stackLayout;horizontal=1;startSize=30;horizontalStack=0;resizeParent=1;resizeParentMax=0;resizeLast=0;collapsible=1;marginBottom=0;whiteSpace=wrap;html=1;fillColor=#33FF33;" parent="1" vertex="1">
          <mxGeometry x="480" y="120" width="140" height="150" as="geometry" />
        </mxCell>
        <mxCell id="8NgjJZ-8jwCqkYJ4vClg-10" value="-Gestionar Posts" style="text;strokeColor=none;fillColor=none;align=left;verticalAlign=middle;spacingLeft=4;spacingRight=4;overflow=hidden;points=[[0,0.5],[1,0.5]];portConstraint=eastwest;rotatable=0;whiteSpace=wrap;html=1;" parent="8NgjJZ-8jwCqkYJ4vClg-9" vertex="1">
          <mxGeometry y="30" width="140" height="30" as="geometry" />
        </mxCell>
        <mxCell id="8NgjJZ-8jwCqkYJ4vClg-11" value="-Gestionar Comentarios" style="text;strokeColor=none;fillColor=none;align=left;verticalAlign=middle;spacingLeft=4;spacingRight=4;overflow=hidden;points=[[0,0.5],[1,0.5]];portConstraint=eastwest;rotatable=0;whiteSpace=wrap;html=1;" parent="8NgjJZ-8jwCqkYJ4vClg-9" vertex="1">
          <mxGeometry y="60" width="140" height="30" as="geometry" />
        </mxCell>
        <mxCell id="8NgjJZ-8jwCqkYJ4vClg-12" value="-Gestionar Ads" style="text;strokeColor=none;fillColor=none;align=left;verticalAlign=middle;spacingLeft=4;spacingRight=4;overflow=hidden;points=[[0,0.5],[1,0.5]];portConstraint=eastwest;rotatable=0;whiteSpace=wrap;html=1;" parent="8NgjJZ-8jwCqkYJ4vClg-9" vertex="1">
          <mxGeometry y="90" width="140" height="30" as="geometry" />
        </mxCell>
        <mxCell id="8NgjJZ-8jwCqkYJ4vClg-13" value="-Gestionar Sociallinks" style="text;strokeColor=none;fillColor=none;align=left;verticalAlign=middle;spacingLeft=4;spacingRight=4;overflow=hidden;points=[[0,0.5],[1,0.5]];portConstraint=eastwest;rotatable=0;whiteSpace=wrap;html=1;" parent="8NgjJZ-8jwCqkYJ4vClg-9" vertex="1">
          <mxGeometry y="120" width="140" height="30" as="geometry" />
        </mxCell>
        <mxCell id="KJZtBiu8l8J9M0gfE-wd-1" value="&lt;b&gt;&lt;font style=&quot;font-size: 21px;&quot;&gt;Diagrama de Secuencia&lt;/font&gt;&lt;/b&gt;" style="text;html=1;align=center;verticalAlign=middle;resizable=0;points=[];autosize=1;strokeColor=none;fillColor=none;" vertex="1" parent="1">
          <mxGeometry x="160" y="43" width="260" height="40" as="geometry" />
        </mxCell>
      </root>
    </mxGraphModel>
  </diagram>
  <diagram id="rQjurx-9YXQ78n4hkSo_" name="Página-2">
    <mxGraphModel dx="1691" dy="526" grid="1" gridSize="10" guides="1" tooltips="1" connect="1" arrows="1" fold="1" page="1" pageScale="1" pageWidth="827" pageHeight="1169" math="0" shadow="0">
      <root>
        <mxCell id="0" />
        <mxCell id="1" parent="0" />
        <mxCell id="VK0lWsWh_k2m5MrGWLUa-1" value="User" style="swimlane;fontStyle=0;childLayout=stackLayout;horizontal=1;startSize=26;fillColor=#33FF33;horizontalStack=0;resizeParent=1;resizeParentMax=0;resizeLast=0;collapsible=1;marginBottom=0;whiteSpace=wrap;html=1;" vertex="1" parent="1">
          <mxGeometry x="80" y="80" width="140" height="104" as="geometry">
            <mxRectangle x="80" y="80" width="70" height="30" as="alternateBounds" />
          </mxGeometry>
        </mxCell>
        <mxCell id="VK0lWsWh_k2m5MrGWLUa-2" value="- Id: int" style="text;strokeColor=none;fillColor=none;align=left;verticalAlign=top;spacingLeft=4;spacingRight=4;overflow=hidden;rotatable=0;points=[[0,0.5],[1,0.5]];portConstraint=eastwest;whiteSpace=wrap;html=1;" vertex="1" parent="VK0lWsWh_k2m5MrGWLUa-1">
          <mxGeometry y="26" width="140" height="26" as="geometry" />
        </mxCell>
        <mxCell id="VK0lWsWh_k2m5MrGWLUa-3" value="- Username: str" style="text;strokeColor=none;fillColor=none;align=left;verticalAlign=top;spacingLeft=4;spacingRight=4;overflow=hidden;rotatable=0;points=[[0,0.5],[1,0.5]];portConstraint=eastwest;whiteSpace=wrap;html=1;" vertex="1" parent="VK0lWsWh_k2m5MrGWLUa-1">
          <mxGeometry y="52" width="140" height="26" as="geometry" />
        </mxCell>
        <mxCell id="VK0lWsWh_k2m5MrGWLUa-4" value="- Email: str" style="text;strokeColor=none;fillColor=none;align=left;verticalAlign=top;spacingLeft=4;spacingRight=4;overflow=hidden;rotatable=0;points=[[0,0.5],[1,0.5]];portConstraint=eastwest;whiteSpace=wrap;html=1;" vertex="1" parent="VK0lWsWh_k2m5MrGWLUa-1">
          <mxGeometry y="78" width="140" height="26" as="geometry" />
        </mxCell>
        <mxCell id="VK0lWsWh_k2m5MrGWLUa-6" value="Comment" style="swimlane;fontStyle=0;childLayout=stackLayout;horizontal=1;startSize=26;fillColor=#33FF33;horizontalStack=0;resizeParent=1;resizeParentMax=0;resizeLast=0;collapsible=1;marginBottom=0;whiteSpace=wrap;html=1;" vertex="1" parent="1">
          <mxGeometry x="344" y="80" width="140" height="182" as="geometry">
            <mxRectangle x="344" y="80" width="100" height="30" as="alternateBounds" />
          </mxGeometry>
        </mxCell>
        <mxCell id="VK0lWsWh_k2m5MrGWLUa-7" value="- Id: int" style="text;strokeColor=none;fillColor=none;align=left;verticalAlign=top;spacingLeft=4;spacingRight=4;overflow=hidden;rotatable=0;points=[[0,0.5],[1,0.5]];portConstraint=eastwest;whiteSpace=wrap;html=1;" vertex="1" parent="VK0lWsWh_k2m5MrGWLUa-6">
          <mxGeometry y="26" width="140" height="26" as="geometry" />
        </mxCell>
        <mxCell id="VK0lWsWh_k2m5MrGWLUa-8" value="- Name: str" style="text;strokeColor=none;fillColor=none;align=left;verticalAlign=top;spacingLeft=4;spacingRight=4;overflow=hidden;rotatable=0;points=[[0,0.5],[1,0.5]];portConstraint=eastwest;whiteSpace=wrap;html=1;" vertex="1" parent="VK0lWsWh_k2m5MrGWLUa-6">
          <mxGeometry y="52" width="140" height="26" as="geometry" />
        </mxCell>
        <mxCell id="VK0lWsWh_k2m5MrGWLUa-9" value="- Email: str" style="text;strokeColor=none;fillColor=none;align=left;verticalAlign=top;spacingLeft=4;spacingRight=4;overflow=hidden;rotatable=0;points=[[0,0.5],[1,0.5]];portConstraint=eastwest;whiteSpace=wrap;html=1;" vertex="1" parent="VK0lWsWh_k2m5MrGWLUa-6">
          <mxGeometry y="78" width="140" height="26" as="geometry" />
        </mxCell>
        <mxCell id="VK0lWsWh_k2m5MrGWLUa-10" value="- Body: text" style="text;strokeColor=none;fillColor=none;align=left;verticalAlign=top;spacingLeft=4;spacingRight=4;overflow=hidden;rotatable=0;points=[[0,0.5],[1,0.5]];portConstraint=eastwest;whiteSpace=wrap;html=1;" vertex="1" parent="VK0lWsWh_k2m5MrGWLUa-6">
          <mxGeometry y="104" width="140" height="26" as="geometry" />
        </mxCell>
        <mxCell id="VK0lWsWh_k2m5MrGWLUa-11" value="- Created_on: datatime" style="text;strokeColor=none;fillColor=none;align=left;verticalAlign=top;spacingLeft=4;spacingRight=4;overflow=hidden;rotatable=0;points=[[0,0.5],[1,0.5]];portConstraint=eastwest;whiteSpace=wrap;html=1;" vertex="1" parent="VK0lWsWh_k2m5MrGWLUa-6">
          <mxGeometry y="130" width="140" height="26" as="geometry" />
        </mxCell>
        <mxCell id="VK0lWsWh_k2m5MrGWLUa-12" value="- Active: bool" style="text;strokeColor=none;fillColor=none;align=left;verticalAlign=top;spacingLeft=4;spacingRight=4;overflow=hidden;rotatable=0;points=[[0,0.5],[1,0.5]];portConstraint=eastwest;whiteSpace=wrap;html=1;" vertex="1" parent="VK0lWsWh_k2m5MrGWLUa-6">
          <mxGeometry y="156" width="140" height="26" as="geometry" />
        </mxCell>
        <mxCell id="VK0lWsWh_k2m5MrGWLUa-13" value="" style="edgeStyle=entityRelationEdgeStyle;fontSize=12;html=1;endArrow=ERmany;rounded=0;exitX=1;exitY=0.5;exitDx=0;exitDy=0;entryX=0;entryY=0.5;entryDx=0;entryDy=0;" edge="1" parent="1" source="VK0lWsWh_k2m5MrGWLUa-4" target="VK0lWsWh_k2m5MrGWLUa-9">
          <mxGeometry width="100" height="100" relative="1" as="geometry">
            <mxPoint x="360" y="320" as="sourcePoint" />
            <mxPoint x="460" y="220" as="targetPoint" />
          </mxGeometry>
        </mxCell>
        <mxCell id="VK0lWsWh_k2m5MrGWLUa-14" value="1" style="text;html=1;align=center;verticalAlign=middle;resizable=0;points=[];autosize=1;strokeColor=none;fillColor=none;" vertex="1" parent="1">
          <mxGeometry x="225" y="148" width="30" height="30" as="geometry" />
        </mxCell>
        <mxCell id="VK0lWsWh_k2m5MrGWLUa-15" value="*" style="text;html=1;align=center;verticalAlign=middle;resizable=0;points=[];autosize=1;strokeColor=none;fillColor=none;" vertex="1" parent="1">
          <mxGeometry x="309" y="148" width="30" height="30" as="geometry" />
        </mxCell>
        <mxCell id="VK0lWsWh_k2m5MrGWLUa-17" value="Posts" style="swimlane;fontStyle=0;childLayout=stackLayout;horizontal=1;startSize=26;fillColor=#33FF33;horizontalStack=0;resizeParent=1;resizeParentMax=0;resizeLast=0;collapsible=1;marginBottom=0;whiteSpace=wrap;html=1;" vertex="1" parent="1">
          <mxGeometry x="80" y="240" width="140" height="234" as="geometry" />
        </mxCell>
        <mxCell id="VK0lWsWh_k2m5MrGWLUa-18" value="- Id: int" style="text;strokeColor=none;fillColor=none;align=left;verticalAlign=top;spacingLeft=4;spacingRight=4;overflow=hidden;rotatable=0;points=[[0,0.5],[1,0.5]];portConstraint=eastwest;whiteSpace=wrap;html=1;" vertex="1" parent="VK0lWsWh_k2m5MrGWLUa-17">
          <mxGeometry y="26" width="140" height="26" as="geometry" />
        </mxCell>
        <mxCell id="VK0lWsWh_k2m5MrGWLUa-19" value="- Title: str" style="text;strokeColor=none;fillColor=none;align=left;verticalAlign=top;spacingLeft=4;spacingRight=4;overflow=hidden;rotatable=0;points=[[0,0.5],[1,0.5]];portConstraint=eastwest;whiteSpace=wrap;html=1;" vertex="1" parent="VK0lWsWh_k2m5MrGWLUa-17">
          <mxGeometry y="52" width="140" height="26" as="geometry" />
        </mxCell>
        <mxCell id="VK0lWsWh_k2m5MrGWLUa-20" value="- Slug: str" style="text;strokeColor=none;fillColor=none;align=left;verticalAlign=top;spacingLeft=4;spacingRight=4;overflow=hidden;rotatable=0;points=[[0,0.5],[1,0.5]];portConstraint=eastwest;whiteSpace=wrap;html=1;" vertex="1" parent="VK0lWsWh_k2m5MrGWLUa-17">
          <mxGeometry y="78" width="140" height="26" as="geometry" />
        </mxCell>
        <mxCell id="VK0lWsWh_k2m5MrGWLUa-21" value="- Author:&amp;nbsp; User" style="text;strokeColor=none;fillColor=none;align=left;verticalAlign=top;spacingLeft=4;spacingRight=4;overflow=hidden;rotatable=0;points=[[0,0.5],[1,0.5]];portConstraint=eastwest;whiteSpace=wrap;html=1;" vertex="1" parent="VK0lWsWh_k2m5MrGWLUa-17">
          <mxGeometry y="104" width="140" height="26" as="geometry" />
        </mxCell>
        <mxCell id="VK0lWsWh_k2m5MrGWLUa-22" value="- Updated_on: datatime" style="text;strokeColor=none;fillColor=none;align=left;verticalAlign=top;spacingLeft=4;spacingRight=4;overflow=hidden;rotatable=0;points=[[0,0.5],[1,0.5]];portConstraint=eastwest;whiteSpace=wrap;html=1;" vertex="1" parent="VK0lWsWh_k2m5MrGWLUa-17">
          <mxGeometry y="130" width="140" height="26" as="geometry" />
        </mxCell>
        <mxCell id="VK0lWsWh_k2m5MrGWLUa-23" value="- Content: text" style="text;strokeColor=none;fillColor=none;align=left;verticalAlign=top;spacingLeft=4;spacingRight=4;overflow=hidden;rotatable=0;points=[[0,0.5],[1,0.5]];portConstraint=eastwest;whiteSpace=wrap;html=1;" vertex="1" parent="VK0lWsWh_k2m5MrGWLUa-17">
          <mxGeometry y="156" width="140" height="26" as="geometry" />
        </mxCell>
        <mxCell id="VK0lWsWh_k2m5MrGWLUa-24" value="- Created_on: datatime" style="text;strokeColor=none;fillColor=none;align=left;verticalAlign=top;spacingLeft=4;spacingRight=4;overflow=hidden;rotatable=0;points=[[0,0.5],[1,0.5]];portConstraint=eastwest;whiteSpace=wrap;html=1;" vertex="1" parent="VK0lWsWh_k2m5MrGWLUa-17">
          <mxGeometry y="182" width="140" height="26" as="geometry" />
        </mxCell>
        <mxCell id="VK0lWsWh_k2m5MrGWLUa-25" value="- Status: int" style="text;strokeColor=none;fillColor=none;align=left;verticalAlign=top;spacingLeft=4;spacingRight=4;overflow=hidden;rotatable=0;points=[[0,0.5],[1,0.5]];portConstraint=eastwest;whiteSpace=wrap;html=1;" vertex="1" parent="VK0lWsWh_k2m5MrGWLUa-17">
          <mxGeometry y="208" width="140" height="26" as="geometry" />
        </mxCell>
        <mxCell id="VK0lWsWh_k2m5MrGWLUa-26" value="Ad" style="swimlane;fontStyle=0;childLayout=stackLayout;horizontal=1;startSize=26;fillColor=#33FF33;horizontalStack=0;resizeParent=1;resizeParentMax=0;resizeLast=0;collapsible=1;marginBottom=0;whiteSpace=wrap;html=1;" vertex="1" parent="1">
          <mxGeometry x="80" y="520" width="140" height="130" as="geometry" />
        </mxCell>
        <mxCell id="VK0lWsWh_k2m5MrGWLUa-27" value="- Id: int" style="text;strokeColor=none;fillColor=none;align=left;verticalAlign=top;spacingLeft=4;spacingRight=4;overflow=hidden;rotatable=0;points=[[0,0.5],[1,0.5]];portConstraint=eastwest;whiteSpace=wrap;html=1;" vertex="1" parent="VK0lWsWh_k2m5MrGWLUa-26">
          <mxGeometry y="26" width="140" height="26" as="geometry" />
        </mxCell>
        <mxCell id="VK0lWsWh_k2m5MrGWLUa-28" value="- Title: str" style="text;strokeColor=none;fillColor=none;align=left;verticalAlign=top;spacingLeft=4;spacingRight=4;overflow=hidden;rotatable=0;points=[[0,0.5],[1,0.5]];portConstraint=eastwest;whiteSpace=wrap;html=1;" vertex="1" parent="VK0lWsWh_k2m5MrGWLUa-26">
          <mxGeometry y="52" width="140" height="26" as="geometry" />
        </mxCell>
        <mxCell id="VK0lWsWh_k2m5MrGWLUa-29" value="- Image: image" style="text;strokeColor=none;fillColor=none;align=left;verticalAlign=top;spacingLeft=4;spacingRight=4;overflow=hidden;rotatable=0;points=[[0,0.5],[1,0.5]];portConstraint=eastwest;whiteSpace=wrap;html=1;" vertex="1" parent="VK0lWsWh_k2m5MrGWLUa-26">
          <mxGeometry y="78" width="140" height="26" as="geometry" />
        </mxCell>
        <mxCell id="VK0lWsWh_k2m5MrGWLUa-30" value="- Link: str" style="text;strokeColor=none;fillColor=none;align=left;verticalAlign=top;spacingLeft=4;spacingRight=4;overflow=hidden;rotatable=0;points=[[0,0.5],[1,0.5]];portConstraint=eastwest;whiteSpace=wrap;html=1;" vertex="1" parent="VK0lWsWh_k2m5MrGWLUa-26">
          <mxGeometry y="104" width="140" height="26" as="geometry" />
        </mxCell>
        <mxCell id="VK0lWsWh_k2m5MrGWLUa-31" value="Sociallink" style="swimlane;fontStyle=0;childLayout=stackLayout;horizontal=1;startSize=26;fillColor=#33FF33;horizontalStack=0;resizeParent=1;resizeParentMax=0;resizeLast=0;collapsible=1;marginBottom=0;whiteSpace=wrap;html=1;" vertex="1" parent="1">
          <mxGeometry x="360" y="320" width="140" height="104" as="geometry" />
        </mxCell>
        <mxCell id="VK0lWsWh_k2m5MrGWLUa-32" value="-Id: int" style="text;strokeColor=none;fillColor=none;align=left;verticalAlign=top;spacingLeft=4;spacingRight=4;overflow=hidden;rotatable=0;points=[[0,0.5],[1,0.5]];portConstraint=eastwest;whiteSpace=wrap;html=1;" vertex="1" parent="VK0lWsWh_k2m5MrGWLUa-31">
          <mxGeometry y="26" width="140" height="26" as="geometry" />
        </mxCell>
        <mxCell id="VK0lWsWh_k2m5MrGWLUa-33" value="- name: str" style="text;strokeColor=none;fillColor=none;align=left;verticalAlign=top;spacingLeft=4;spacingRight=4;overflow=hidden;rotatable=0;points=[[0,0.5],[1,0.5]];portConstraint=eastwest;whiteSpace=wrap;html=1;" vertex="1" parent="VK0lWsWh_k2m5MrGWLUa-31">
          <mxGeometry y="52" width="140" height="26" as="geometry" />
        </mxCell>
        <mxCell id="VK0lWsWh_k2m5MrGWLUa-34" value="- Link: str" style="text;strokeColor=none;fillColor=none;align=left;verticalAlign=top;spacingLeft=4;spacingRight=4;overflow=hidden;rotatable=0;points=[[0,0.5],[1,0.5]];portConstraint=eastwest;whiteSpace=wrap;html=1;" vertex="1" parent="VK0lWsWh_k2m5MrGWLUa-31">
          <mxGeometry y="78" width="140" height="26" as="geometry" />
        </mxCell>
        <mxCell id="VK0lWsWh_k2m5MrGWLUa-35" value="" style="edgeStyle=entityRelationEdgeStyle;fontSize=12;html=1;endArrow=ERoneToMany;rounded=0;entryX=1;entryY=0.5;entryDx=0;entryDy=0;" edge="1" parent="1" source="VK0lWsWh_k2m5MrGWLUa-2" target="VK0lWsWh_k2m5MrGWLUa-21">
          <mxGeometry width="100" height="100" relative="1" as="geometry">
            <mxPoint x="360" y="320" as="sourcePoint" />
            <mxPoint x="460" y="220" as="targetPoint" />
          </mxGeometry>
        </mxCell>
        <mxCell id="VK0lWsWh_k2m5MrGWLUa-36" value="1" style="text;html=1;align=center;verticalAlign=middle;resizable=0;points=[];autosize=1;strokeColor=none;fillColor=none;" vertex="1" parent="1">
          <mxGeometry x="215" y="88" width="30" height="30" as="geometry" />
        </mxCell>
        <mxCell id="VK0lWsWh_k2m5MrGWLUa-37" value="*" style="text;html=1;align=center;verticalAlign=middle;resizable=0;points=[];autosize=1;strokeColor=none;fillColor=none;" vertex="1" parent="1">
          <mxGeometry x="225" y="328" width="30" height="30" as="geometry" />
        </mxCell>
        <mxCell id="VK0lWsWh_k2m5MrGWLUa-38" value="" style="edgeStyle=entityRelationEdgeStyle;fontSize=12;html=1;endArrow=ERoneToMany;rounded=0;exitX=1;exitY=0.5;exitDx=0;exitDy=0;entryX=0;entryY=0.5;entryDx=0;entryDy=0;" edge="1" parent="1" source="VK0lWsWh_k2m5MrGWLUa-18" target="VK0lWsWh_k2m5MrGWLUa-32">
          <mxGeometry width="100" height="100" relative="1" as="geometry">
            <mxPoint x="360" y="420" as="sourcePoint" />
            <mxPoint x="460" y="320" as="targetPoint" />
          </mxGeometry>
        </mxCell>
        <mxCell id="VK0lWsWh_k2m5MrGWLUa-40" value="1" style="text;html=1;align=center;verticalAlign=middle;resizable=0;points=[];autosize=1;strokeColor=none;fillColor=none;" vertex="1" parent="1">
          <mxGeometry x="220" y="250" width="30" height="30" as="geometry" />
        </mxCell>
        <mxCell id="VK0lWsWh_k2m5MrGWLUa-41" value="*" style="text;html=1;align=center;verticalAlign=middle;resizable=0;points=[];autosize=1;strokeColor=none;fillColor=none;" vertex="1" parent="1">
          <mxGeometry x="335" y="328" width="30" height="30" as="geometry" />
        </mxCell>
        <mxCell id="VK0lWsWh_k2m5MrGWLUa-42" value="" style="edgeStyle=orthogonalEdgeStyle;fontSize=12;html=1;endArrow=ERmany;rounded=0;exitX=0;exitY=0.5;exitDx=0;exitDy=0;entryX=0;entryY=0.5;entryDx=0;entryDy=0;" edge="1" parent="1" source="VK0lWsWh_k2m5MrGWLUa-18" target="VK0lWsWh_k2m5MrGWLUa-27">
          <mxGeometry width="100" height="100" relative="1" as="geometry">
            <mxPoint x="360" y="420" as="sourcePoint" />
            <mxPoint x="460" y="320" as="targetPoint" />
          </mxGeometry>
        </mxCell>
        <mxCell id="VK0lWsWh_k2m5MrGWLUa-43" value="1" style="text;html=1;align=center;verticalAlign=middle;resizable=0;points=[];autosize=1;strokeColor=none;fillColor=none;" vertex="1" parent="1">
          <mxGeometry x="55" y="248" width="30" height="30" as="geometry" />
        </mxCell>
        <mxCell id="VK0lWsWh_k2m5MrGWLUa-44" value="*" style="text;html=1;align=center;verticalAlign=middle;resizable=0;points=[];autosize=1;strokeColor=none;fillColor=none;" vertex="1" parent="1">
          <mxGeometry x="45" y="538" width="30" height="30" as="geometry" />
        </mxCell>
        <mxCell id="VK0lWsWh_k2m5MrGWLUa-45" value="" style="edgeStyle=orthogonalEdgeStyle;fontSize=12;html=1;endArrow=ERoneToMany;rounded=0;entryX=0;entryY=0.5;entryDx=0;entryDy=0;exitX=0.867;exitY=1;exitDx=0;exitDy=0;exitPerimeter=0;" edge="1" parent="1" source="VK0lWsWh_k2m5MrGWLUa-43" target="VK0lWsWh_k2m5MrGWLUa-7">
          <mxGeometry width="100" height="100" relative="1" as="geometry">
            <mxPoint x="360" y="320" as="sourcePoint" />
            <mxPoint x="460" y="220" as="targetPoint" />
            <Array as="points">
              <mxPoint x="50" y="278" />
              <mxPoint x="50" y="210" />
              <mxPoint x="300" y="210" />
              <mxPoint x="300" y="119" />
            </Array>
          </mxGeometry>
        </mxCell>
        <mxCell id="VK0lWsWh_k2m5MrGWLUa-46" value="*" style="text;html=1;align=center;verticalAlign=middle;resizable=0;points=[];autosize=1;strokeColor=none;fillColor=none;" vertex="1" parent="1">
          <mxGeometry x="305" y="88" width="30" height="30" as="geometry" />
        </mxCell>
        <mxCell id="Z2f67RfhDwv9Ywp2bEh--1" value="&lt;b&gt;&lt;font style=&quot;font-size: 21px;&quot;&gt;Diagrama clases&lt;/font&gt;&lt;/b&gt;" style="text;html=1;align=center;verticalAlign=middle;resizable=0;points=[];autosize=1;strokeColor=none;fillColor=none;" vertex="1" parent="1">
          <mxGeometry x="-15" y="3" width="190" height="40" as="geometry" />
        </mxCell>
      </root>
    </mxGraphModel>
  </diagram>
  <diagram id="dDvcaRul3qeXtGI1Ieer" name="Página-3">
    <mxGraphModel dx="1691" dy="526" grid="1" gridSize="10" guides="1" tooltips="1" connect="1" arrows="1" fold="1" page="1" pageScale="1" pageWidth="827" pageHeight="1169" background="#33FF33" math="0" shadow="0">
      <root>
        <mxCell id="0" />
        <mxCell id="1" parent="0" />
        <mxCell id="6AeWmUTUUCWyM8Th6i2a-1" value="Descripcion de las relaciones en el Diagrama de Clases&amp;nbsp;" style="text;html=1;align=center;verticalAlign=middle;resizable=0;points=[];autosize=1;strokeColor=none;fillColor=none;strokeWidth=3;fontSize=27;fontStyle=7;" vertex="1" parent="1">
          <mxGeometry x="20" y="30" width="740" height="50" as="geometry" />
        </mxCell>
        <mxCell id="6AeWmUTUUCWyM8Th6i2a-2" value="&amp;nbsp;1 User - Post:&amp;nbsp;Relación: 1 a muchos (1 usuario puede tener varios posts, pero un post pertenece a un solo usuario)&lt;div&gt;Representación en el diagrama: La clase User está asociada con la clase Post mediante una línea con un &quot;1&quot; en el extremo de la clase User y un &quot;*&quot; en el extremo de la clase Post.&lt;/div&gt;" style="text;html=1;align=center;verticalAlign=middle;resizable=0;points=[];autosize=1;strokeColor=none;fillColor=none;" vertex="1" parent="1">
          <mxGeometry x="-270" y="113" width="1010" height="40" as="geometry" />
        </mxCell>
        <mxCell id="6AeWmUTUUCWyM8Th6i2a-5" value="2&amp;nbsp;User - Comment:&amp;nbsp;Relación: 1 a muchos (1 usuario puede realizar varios comentarios, pero un comentario pertenece a un solo usuario)&lt;div&gt;Representación en el diagrama: La clase User está asociada con la clase Comment mediante una línea con un &quot;1&quot; en el extremo de la clase User y un &quot;*&quot; en el extremo de la clase Comment.&lt;/div&gt;" style="text;html=1;align=center;verticalAlign=middle;resizable=0;points=[];autosize=1;strokeColor=none;fillColor=none;" vertex="1" parent="1">
          <mxGeometry x="-243" y="190" width="1070" height="40" as="geometry" />
        </mxCell>
        <mxCell id="6AeWmUTUUCWyM8Th6i2a-7" value="3&amp;nbsp;Post - Comment:&amp;nbsp;Relación: 1 a muchos (1 post puede tener varios comentarios, pero un comentario pertenece a un solo post)&lt;div&gt;Representación en el diagrama: La clase Post está asociada con la clase Comment mediante una línea con un &quot;1&quot; en el extremo de la clase Post y un &quot;*&quot; en el extremo de la clase Comment.&lt;/div&gt;" style="text;html=1;align=center;verticalAlign=middle;resizable=0;points=[];autosize=1;strokeColor=none;fillColor=none;" vertex="1" parent="1">
          <mxGeometry x="-260" y="270" width="1060" height="40" as="geometry" />
        </mxCell>
        <mxCell id="6AeWmUTUUCWyM8Th6i2a-8" value="4&amp;nbsp;Ad - Post:&amp;nbsp;Relación: 1 a muchos (1 anuncio puede estar asociado con varios posts, pero un post tiene solo un anuncio asociado)&lt;br&gt;&lt;span style=&quot;background-color: initial;&quot;&gt;Representación en el diagrama: La clase Ad está asociada con la clase Post mediante una línea con un &quot;1&quot; en el extremo de la clase Ad y un &quot;*&quot; en el extremo de la clase Post.&lt;/span&gt;&amp;nbsp;" style="text;html=1;align=center;verticalAlign=middle;resizable=0;points=[];autosize=1;strokeColor=none;fillColor=none;" vertex="1" parent="1">
          <mxGeometry x="-210" y="360" width="980" height="40" as="geometry" />
        </mxCell>
        <mxCell id="6AeWmUTUUCWyM8Th6i2a-9" value="5&amp;nbsp;SocialLink - Post:&amp;nbsp;Relación: 1 a muchos (1 enlace social puede estar asociado con varios posts, pero un post tiene solo un enlace social asociado)&lt;div&gt;Representación en el diagrama: La clase SocialLink está asociada con la clase Post mediante una línea con un &quot;1&quot; en el extremo de la clase SocialLink y un &quot;*&quot; en el extremo de la clase Post.&lt;/div&gt;" style="text;html=1;align=center;verticalAlign=middle;resizable=0;points=[];autosize=1;strokeColor=none;fillColor=none;" vertex="1" parent="1">
          <mxGeometry x="-210" y="440" width="1070" height="40" as="geometry" />
        </mxCell>
      </root>
    </mxGraphModel>
  </diagram>
</mxfile>
